<svg width="446" height="237" viewBox="0 0 446 237" fill="none" xmlns="http://www.w3.org/2000/svg">
<path d="M228 31H245V48H259.5V31H276.5V16.5H259.5V0H245V16.5H228V31Z" fill="url(#paint0_linear_107_5)"/>
<path d="M285.92 97.7H279.52V158.5H257.92L227.6 97.7V155.3H234V158.5H217.6V155.3H224V97.7H217.6V94.5H245.6L275.92 155.3V97.7H269.52V94.5H285.92V97.7Z" fill="#143059"/>
<path d="M112.5 210.505C106.529 211.5 34.6667 205.839 0 202.506C31.3333 201.005 95.3 197.805 100.5 197.005C107 196.005 110.5 174.505 117 174.005C123.5 173.505 126.5 188.005 128.5 192.005C130.1 195.205 132.5 196.005 133.5 196.005H152C157.5 196.005 156.5 204.505 161 205.005C166.466 205.612 167 169.505 177 168.005C182.489 167.182 185.5 176.505 185.5 176.505C185.5 176.505 192.5 196.005 196.5 196.005H240.5C263.5 191.005 309.529 151 318.5 122.505C327 95.505 324.703 75.8899 302 65.505C284.5 57.5 264.667 72.3386 256.5 82.5053C252 38.5053 302.5 25.5 329.5 49.0053C356.466 72.4808 350.5 97.0053 344 116.505C337.5 136.005 313 167.005 287.5 187.505C262 208.005 250.5 210.005 247.5 210.505C244.5 211.005 199 210.505 191 210.505C183 210.505 183.5 200.505 179 200.505C174.5 200.505 169.5 236.505 161 236.505C152.5 236.505 147.5 214 144 212C140.5 210 133 211.006 126 211.006C119.815 211.006 120.5 200.005 118 200.005C115.5 200.005 115.5 210.005 112.5 210.505Z" fill="url(#paint1_linear_107_5)"/>
<path d="M207.502 37.9998C240.302 37.1998 249.168 67.6665 249.502 82.9998C247.169 81.3332 249.329 81.4049 231 67.5C216.5 56.5 174.017 64 182.503 111C189.003 147 224.503 172.5 248.003 186.5C244.003 189.3 236.169 191.333 233.003 191.5C195.503 168 168.999 143 157.502 111C145.602 77.8806 166.502 38.9998 207.502 37.9998Z" fill="url(#paint2_linear_107_5)"/>
<path d="M266.5 209.5C272.833 206.333 286.8 198.6 292 193H305C305.833 193.167 308 192.4 310 188C312.667 181.167 319.3 167.5 324.5 167.5C332.5 167.5 336.5 190.5 341.5 193C346.439 195.469 434.31 205.744 445.134 205.513L445.5 205.5C445.39 205.506 445.268 205.511 445.134 205.513L336.5 209.5C334.667 209.5 331.523 209.023 330 207.5C327.5 205 327.041 199.5 324 199.5C320.959 199.5 318.5 209.5 315 209.5H266.5Z" fill="url(#paint3_linear_107_5)"/>
<defs>
<linearGradient id="paint0_linear_107_5" x1="252.25" y1="0" x2="252.25" y2="48" gradientUnits="userSpaceOnUse">
<stop stop-color="#2E7041"/>
<stop offset="1" stop-color="#5DA952"/>
</linearGradient>
<linearGradient id="paint1_linear_107_5" x1="174.756" y1="37.4648" x2="174.756" y2="236.505" gradientUnits="userSpaceOnUse">
<stop stop-color="#09467C"/>
<stop offset="1" stop-color="#143560"/>
</linearGradient>
<linearGradient id="paint2_linear_107_5" x1="299.842" y1="37.9844" x2="299.842" y2="209.5" gradientUnits="userSpaceOnUse">
<stop stop-color="#20703A"/>
<stop offset="1" stop-color="#63A247"/>
</linearGradient>
<linearGradient id="paint3_linear_107_5" x1="299.842" y1="37.9844" x2="299.842" y2="209.5" gradientUnits="userSpaceOnUse">
<stop stop-color="#20703A"/>
<stop offset="1" stop-color="#63A247"/>
</linearGradient>
</defs>
</svg>
